<svg xmlns="http://www.w3.org/2000/svg" clip-rule="evenodd" fill-rule="evenodd" image-rendering="optimizeQuality" shape-rendering="geometricPrecision" text-rendering="geometricPrecision" viewBox="0 0 33 33"><path d="m20.2709 32.3859h-7.42344c-7.06702 0-12.8474-5.66151-12.8474-12.5703v-7.24529c0-6.90867 5.78039-12.5702 12.8474-12.5702l7.42344-.00011924c7.06702 0 12.8474 5.66163 12.8474 12.5704v7.24517c0 6.90867-5.78039 12.5703-12.8474 12.5703zm-.13856-.633535h-7.14632c-6.7899 0-12.3526-5.44365-12.3526-12.0753v-6.96817c0-6.65134 5.56266-12.0753 12.3526-12.0753h7.14632c6.7899 0 12.3328 5.4241 12.3328 12.0754v6.96805c0 6.63155-5.54286 12.0754-12.3328 12.0753zm-.336502-1.38572h-6.49311c-6.19607 0-11.2638-4.9488-11.2638-11.0063v-6.35455c0-6.05739 5.06768-11.0063 11.2638-11.0063l6.49311-.00011924c6.19595 0 11.2638 4.94904 11.2638 11.0066v6.35431c0 6.05751-5.0678 11.0066-11.2638 11.0064zm-3.20702-13.3819 11.1847-5.06768.0395885 11.0658-2.21719 1.16798-2.25666-.970037-.0395885-5.08748-4.55303 2.35563-.0395885 6.59196-2.11822 1.26695-2.21707-1.26695v-6.65134l-4.59262-2.29625v4.88953l-2.29625 1.24716-2.33596-1.24716-.0395885-11.0658 11.4815 5.06768zm-.0989712-13.4414c3.18711 0 5.80019 2.55381 5.80019 5.66175 0 3.12761-2.61308 5.66151-5.80019 5.66151s-5.78028-2.53378-5.78028-5.66151c0-3.10805 2.59316-5.66163 5.78028-5.66175zm.653329 9.18524c.890741-.890741 1.46489-2.15757 1.54407-3.20679l1.4451-.00011924c-.13856 1.60345-1.36592 2.92991-2.98917 3.20691zm3.00896-3.72156h-1.4451c-.0197942-1.20757-.653329-2.49419-1.52428-3.30588 1.62325.296914 2.8704 1.64316 2.96937 3.30588zm-4.37488-3.30588c-.89086.811564-1.50448 2.07863-1.54407 3.306l-1.40551-.00011924c.0989712-1.64304 1.34613-3.00884 2.94958-3.30588zm-2.92979 3.82053h1.38572c.079177 1.04921.633416 2.31616 1.50448 3.18723-1.56386-.297033-2.75164-1.60345-2.8902-3.18723zm3.36526 3.06835v-3.06835h-1.46489c.0989712 1.00963.653329 2.15781 1.46489 3.06835zm-1.4451-3.583h1.4451v-3.06835c-.79177.851272-1.34613 2.03905-1.4451 3.06835zm3.40485 0c-.079177-1.00963-.65321-2.21707-1.44498-3.08802v3.08802zm-1.44498 3.5632c.79177-.890741 1.3658-2.03881 1.44498-3.04843l-1.44498-.00011924v3.04855z"/></svg>
