<svg version="1.1" xmlns="http://www.w3.org/2000/svg" xmlns:xlink="http://www.w3.org/1999/xlink" viewBox="-6 -14 128 128" style="enable-background:new 0 0 512 512;" xml:space="preserve">
    <path d="M66.9,54.5c0-19.1-6.8-27.8-10.4-31.1c-0.7-0.6-1.8-0.1-1.7,0.9c0.7,10.8-12.9,13.5-12.9,30.4h0 c0,0,0,0.1,0,0.1c0,10.3,7.8,18.7,17.4,18.7c9.6,0,17.4-8.4,17.4-18.7c0,0,0-0.1,0-0.1h0c0-4.8-1.8-9.4-3.6-12.8 c-0.4-0.7-1.4-0.4-1.3,0.2C75.1,56.7,66.9,65.7,66.9,54.5z"/>
    <g>
        <path d="M46.2,94.8c-0.4,0-0.9-0.2-1.2-0.5L0.5,49.8c-0.6-0.6-0.6-1.7,0-2.4l47-47C47.8,0.2,48.2,0,48.6,0h13.5 c0.8,0,1.3,0.5,1.5,1c0.2,0.5,0.2,1.2-0.4,1.8L19.1,47c-0.9,0.9-0.9,2.3,0,3.2L54,85.2c0.6,0.6,0.6,1.7,0,2.4l-6.7,6.8 C47,94.6,46.6,94.8,46.2,94.8z"/>
    </g>
    <g>
        <path d="M55.1,102.6c-0.8,0-1.3-0.5-1.5-1c-0.2-0.5-0.2-1.2,0.4-1.8l44.2-44.2c0.4-0.4,0.7-1,0.7-1.6 c0-0.6-0.2-1.2-0.7-1.6L63.2,17.4c-0.6-0.6-0.6-1.7,0-2.4l6.8-6.8c0.3-0.3,0.7-0.5,1.2-0.5S72,8,72.3,8.3l44.4,44.5 c0.3,0.3,0.5,0.7,0.5,1.2s-0.2,0.9-0.5,1.2l-47,47c-0.3,0.3-0.7,0.5-1.2,0.5H55.1z"/>
    </g>
</svg>
